
		<svg xmlns="http://www.w3.org/2000/svg" xmlns:xlink="http://www.w3.org/1999/xlink" version="1.1" width="3126.315789473684" height="726.3157894736842">
			
			<g transform="scale(6.315789473684211) translate(10, 10)">
				<defs id="SvgjsDefs2502"/><g id="SvgjsG2503" featureKey="symbolContainer" transform="matrix(1,0,0,1,20,20)" fill="#000"><rect xmlns="http://www.w3.org/2000/svg" width="75" height="75" rx="10" ry="10"/></g><g id="SvgjsG2504" featureKey="NLk8u1-0" transform="matrix(0.4375,0,0,0.4375,38.947375774383545,38.94737493991852)" fill="#ffffff"><g xmlns="http://www.w3.org/2000/svg"><path d="M42.406,2.406c-22.092,0-40,17.909-40,40c0,22.092,17.908,40,40,40c22.092,0,40-17.908,40-40   C82.406,20.315,64.498,2.406,42.406,2.406z M63.16,45.531H45.531V63.16c0,1.729-1.4,3.126-3.125,3.126   c-1.729,0-3.128-1.397-3.128-3.126V45.531H21.652c-1.728,0-3.126-1.398-3.126-3.126c0-1.726,1.398-3.127,3.126-3.127h17.627V21.651   c0-1.727,1.398-3.125,3.128-3.125c1.724,0,3.125,1.398,3.125,3.125v17.627H63.16c1.725,0,3.125,1.401,3.125,3.127   C66.285,44.133,64.885,45.531,63.16,45.531z"/></g></g><g id="SvgjsG2505" featureKey="mdpUcu-0" transform="matrix(1.285285905641888,0,0,1.285285905641888,111.65825615503343,22.47074402016627)" fill="#000"><path d="M15.64 9.22 q0 1.1 -0.55 2.1 t-1.48 1.75 t-2.18 1.19 t-2.65 0.44 q-0.5 0 -0.79 -0.13 t-0.65 -0.51 q-1 2.18 -1.63 4.01 t-0.99 3.55 q-0.76 -0.18 -1.24 -0.63 t-0.88 -1.13 q0.2 -0.38 0.48 -1 t0.68 -1.53 t0.93 -2.18 t1.25 -2.97 q0.32 -0.78 0.56 -1.36 t0.42 -1.09 t0.33 -1.01 t0.31 -1.1 q-0.94 0.3 -1.73 0.7 t-1.31 0.84 q-0.18 -0.12 -0.37 -0.36 t-0.35 -0.53 t-0.28 -0.59 t-0.14 -0.54 q0.58 -0.4 1.44 -0.74 t1.84 -0.59 t2.03 -0.39 t2.01 -0.14 q1.14 0 2.06 0.29 t1.56 0.81 t0.98 1.24 t0.34 1.6 z M12.08 6.82 q-0.76 0 -1.56 0.12 l0.24 0.36 q-0.2 0.26 -0.5 0.78 t-0.66 1.25 t-0.79 1.63 t-0.91 1.9 q1.56 0 2.84 -0.29 t2.19 -0.8 t1.42 -1.19 t0.51 -1.46 q0 -1.04 -0.7 -1.67 t-2.08 -0.63 z M34.79 5.4399999999999995 q0.38 0.16 0.78 0.41 t0.74 0.51 t0.57 0.51 t0.25 0.41 q-0.34 -0.08 -0.68 -0.11 t-0.62 -0.03 q-0.9 0 -1.79 0.44 t-1.69 1.2 t-1.48 1.78 t-1.17 2.18 t-0.77 2.4 t-0.28 2.44 q0 1.56 0.52 2.32 t1.52 0.76 q0.48 0 1.04 -0.19 t1.14 -0.53 t1.14 -0.82 t1.04 -1.06 q0.7 -0.84 1.26 -1.91 t0.95 -2.27 t0.6 -2.47 t0.21 -2.49 q0 -0.48 -0.02 -0.81 t-0.05 -0.56 t-0.05 -0.37 t-0.04 -0.24 q0.24 0.12 0.53 0.29 t0.54 0.5 t0.42 0.87 t0.17 1.4 q0 1.4 -0.33 2.75 t-0.92 2.57 t-1.39 2.28 t-1.72 1.86 q-1.2 1.06 -2.56 1.64 t-2.62 0.58 q-1.84 0 -2.81 -1.17 t-0.97 -3.45 q0 -1.22 0.27 -2.58 t0.76 -2.68 t1.17 -2.51 t1.49 -2.1 t1.74 -1.45 t1.91 -0.54 q0.32 0 0.6 0.05 t0.6 0.19 z M63.78 6.52 q0.06 0.34 0.09 0.47 t0.03 0.35 q0 0.66 -0.29 1.23 t-0.79 0.81 q-0.4 -0.54 -0.98 -0.93 t-1.27 -0.64 t-1.43 -0.37 t-1.44 -0.12 t-1.31 0.11 t-1.08 0.3 t-0.74 0.47 t-0.27 0.64 q0.06 0.44 0.54 0.89 t1.18 0.88 t1.55 0.85 t1.67 0.8 q1.02 0.48 1.76 0.89 t1.22 0.9 t0.72 1.11 t0.24 1.5 q0 1.02 -0.34 1.91 t-0.99 1.55 t-1.57 1.03 t-2.06 0.37 q-1.12 0 -2.42 -0.34 t-2.43 -0.93 t-1.88 -1.36 t-0.75 -1.63 q0 -0.4 0.23 -1.02 t0.83 -1.3 q0.06 0.6 0.65 1.42 t1.77 1.52 q1.1 0.64 2.27 0.93 t2.19 0.29 q1.12 0 1.82 -0.28 t1.1 -0.67 t0.56 -0.79 t0.18 -0.64 q-0.02 -0.4 -0.37 -0.77 t-0.94 -0.72 t-1.37 -0.71 t-1.62 -0.72 q-1.26 -0.56 -2.17 -1.05 t-1.5 -1 t-0.86 -1.07 t-0.27 -1.28 q0 -1.12 0.68 -2.12 t1.96 -1.52 q0.64 -0.28 1.37 -0.4 t1.43 -0.12 q1.32 0 2.58 0.36 t2.52 0.92 z M76.09 18.86 q0 -0.72 0.23 -1.87 t0.6 -2.48 t0.85 -2.72 t0.98 -2.61 t0.98 -2.14 t0.86 -1.32 q0.2 0.02 0.53 0.15 t0.67 0.31 t0.62 0.39 t0.36 0.39 q-0.58 0.52 -1.15 1.57 t-1.1 2.39 t-0.99 2.83 t-0.8 2.89 t-0.53 2.6 t-0.19 1.94 q0 0.34 0.06 0.42 q-0.44 -0.02 -0.64 -0.15 t-0.31 -0.28 t-0.2 -0.3 t-0.27 -0.23 q-0.14 -0.06 -0.24 -0.28 t-0.17 -0.49 t-0.11 -0.55 t-0.04 -0.46 z M96.46000000000001 7.880000000000001 q-0.8 0 -1.23 -0.45 t-0.43 -1.09 q0 -0.16 0.05 -0.38 t0.13 -0.38 q0.26 0.12 0.77 0.17 t1.19 0.05 q1.02 0 2.31 -0.09 t2.47 -0.19 t2.08 -0.19 t1.16 -0.09 q0.74 0 1.07 0.55 t0.49 1.47 q-0.52 -0.04 -1.03 -0.07 t-0.87 -0.03 q-0.64 0 -1.29 0.04 t-1.31 0.12 q-0.28 0.58 -0.62 1.37 t-0.67 1.65 t-0.63 1.71 t-0.52 1.53 q-0.44 1.32 -0.77 2.44 t-0.58 2.09 t-0.43 1.85 t-0.32 1.72 q-1.34 -0.2 -2.24 -1.68 q0.16 -0.62 0.39 -1.35 t0.54 -1.66 t0.73 -2.11 t0.96 -2.68 q0.2 -0.56 0.42 -1.17 t0.43 -1.21 t0.38 -1.16 t0.29 -1.02 q-0.84 0.1 -1.59 0.17 t-1.33 0.07 z M115.57000000000001 18.86 q0 -0.72 0.23 -1.87 t0.6 -2.48 t0.85 -2.72 t0.98 -2.61 t0.98 -2.14 t0.86 -1.32 q0.2 0.02 0.53 0.15 t0.67 0.31 t0.62 0.39 t0.36 0.39 q-0.58 0.52 -1.15 1.57 t-1.1 2.39 t-0.99 2.83 t-0.8 2.89 t-0.53 2.6 t-0.19 1.94 q0 0.34 0.06 0.42 q-0.44 -0.02 -0.64 -0.15 t-0.31 -0.28 t-0.2 -0.3 t-0.27 -0.23 q-0.14 -0.06 -0.24 -0.28 t-0.17 -0.49 t-0.11 -0.55 t-0.04 -0.46 z M138.34 21.28 q-0.46 0.24 -0.98 0.24 q-0.64 -0.08 -1.23 -0.32 t-0.87 -0.58 q-0.16 -0.98 -0.26 -1.8 t-0.16 -1.55 t-0.08 -1.4 t-0.02 -1.35 q0 -0.9 0.02 -1.9 t0.05 -2.13 t0.05 -2.42 t0.02 -2.81 q0.26 0 0.78 0.15 t1.03 0.35 t0.91 0.41 t0.44 0.35 q-0.2 0.56 -0.35 1.46 t-0.24 2 t-0.13 2.32 t-0.04 2.42 q0 0.9 0.02 1.61 t0.05 1.28 t0.09 1.06 t0.14 0.97 q0.56 -1.7 1.23 -3.4 t1.38 -3.27 t1.41 -2.93 t1.33 -2.37 t1.13 -1.6 t0.82 -0.63 q0.22 0.04 0.47 0.17 t0.47 0.31 t0.4 0.4 t0.28 0.44 q-0.74 0.26 -1.59 1.22 t-1.71 2.31 t-1.67 2.94 t-1.46 3.11 t-1.11 2.84 t-0.62 2.1 z M163.29000000000002 11.48 q0.66 0 1.03 0.36 t0.37 1 q0 0.16 -0.03 0.33 t-0.07 0.29 q-0.26 -0.04 -0.58 -0.07 t-0.76 -0.03 q-0.86 0 -1.74 0.15 t-1.68 0.25 q-0.46 1.06 -0.84 2.05 t-0.65 1.81 t-0.42 1.42 t-0.17 0.9 q1.62 -0.34 3.27 -0.58 t3.47 -0.36 q0.22 0.34 0.37 0.74 t0.15 0.86 l0 0.26 t-0.04 0.28 q-0.56 -0.02 -1.18 -0.03 t-1.62 -0.01 q-0.66 0 -1.25 0.03 t-1.19 0.09 t-1.27 0.16 t-1.51 0.24 q-0.92 -0.36 -1.78 -1.76 q0.34 -0.72 0.95 -2.19 t1.55 -3.93 q-0.9 -0.28 -1.18 -1 q0.1 -0.1 0.58 -0.25 t1.18 -0.31 q0.3 -0.78 0.51 -1.36 t0.37 -1.09 t0.29 -1 t0.25 -1.07 q-0.7 -0.04 -1.1 -0.39 t-0.4 -0.91 q0 -0.16 0.05 -0.38 t0.11 -0.38 q0.4 0.06 0.77 0.08 t0.97 0.02 q1.26 0 2.36 -0.07 t1.99 -0.15 t1.53 -0.15 t0.98 -0.07 q0.46 0 0.82 0.48 t0.54 1.36 q-0.62 -0.06 -1.01 -0.08 t-0.69 -0.02 q-1.1 0 -2.01 0.11 t-1.75 0.23 q-0.12 0.18 -0.27 0.46 t-0.39 0.78 t-0.59 1.26 t-0.85 1.9 q0.76 -0.12 1.43 -0.19 t1.13 -0.07 z M185.36000000000004 18.86 q0.5 0.86 0.5 1.66 q0 0.18 -0.03 0.33 t-0.07 0.31 q-0.34 -0.04 -0.71 -0.06 t-0.77 -0.02 q-0.48 0 -0.97 0.03 t-1.09 0.09 t-1.34 0.16 t-1.72 0.26 q-0.46 -0.16 -0.92 -0.63 t-0.86 -1.13 q0.2 -0.44 0.5 -1.09 t0.7 -1.58 t0.89 -2.18 t1.05 -2.89 q0.36 -1.08 0.62 -1.9 t0.47 -1.59 t0.41 -1.61 t0.44 -1.94 q0.8 0.16 1.39 0.59 t1.13 1.23 q-0.16 0.26 -0.42 0.84 t-0.61 1.41 t-0.77 1.88 t-0.88 2.25 q-0.44 1.18 -0.86 2.22 t-0.75 1.88 t-0.53 1.44 t-0.2 0.9 q0.32 -0.02 0.58 -0.04 t0.54 -0.07 t0.61 -0.12 t0.79 -0.19 q0.4 -0.1 0.74 -0.17 t0.67 -0.12 t0.68 -0.08 t0.79 -0.07 z M206.01000000000005 13.1 q1.5 -1.64 2.69 -3.48 t2.21 -4.14 q0.52 0.06 1 0.28 t0.76 0.5 q-1.1 1.32 -1.99 2.4 t-1.63 2.03 t-1.37 1.82 t-1.23 1.75 q-0.3 1.02 -0.56 2.06 t-0.46 1.99 t-0.31 1.76 t-0.11 1.39 q-0.22 0 -0.7 -0.09 t-0.98 -0.21 t-0.91 -0.24 t-0.49 -0.2 q0.32 -0.54 0.63 -1.33 t0.61 -1.66 t0.58 -1.76 t0.52 -1.65 q-0.5 -1.56 -0.97 -2.93 t-0.91 -2.48 t-0.84 -1.91 t-0.76 -1.22 q0.2 -0.08 0.61 -0.16 t0.9 -0.16 t1 -0.13 t0.91 -0.07 q0 0.5 0.09 1.22 t0.24 1.54 t0.35 1.66 t0.4 1.54 t0.39 1.21 t0.33 0.67 z"/></g><g id="SvgjsG2506" featureKey="swu9dn-0" transform="matrix(1.8085364321478035,0,0,1.8085364321478035,112.25102465763044,50.48709881533879)" fill="#000"><path d="M1.52 20 l0 -14.36 l6.98 0 c3.52 0 4.42 2.2 4.42 3.68 c0 2.06 -1.16 2.64 -1.76 2.94 c1.76 0.66 2.22 2.06 2.22 3.48 c0 1.14 -0.48 2.22 -1.24 2.96 c-0.82 0.8 -1.6 1.3 -4.54 1.3 l-6.08 0 z M4.4 13.68 l0 3.84 l3.68 0 c1.46 0 2.3 -0.64 2.3 -2.1 c0 -1.26 -1.08 -1.74 -2.16 -1.74 l-3.82 0 z M4.4 8.12 l0 3.14 l3.52 0 c1.18 0 2.12 -0.46 2.12 -1.6 c0 -1.18 -0.84 -1.54 -2.2 -1.54 l-3.44 0 z M28.2945 5.640000000000001 l0 11.76 l7.14 0 l0 2.6 l-10.14 0 l0 -14.36 l3 0 z M49.889 17.04 l-1 2.96 l-3.16 0 l5.12 -14.36 l3.46 0 l5.06 14.36 l-3.26 0 l-0.92 -2.96 l-5.3 0 z M52.529 8.88 l-1.84 5.68 l3.66 0 l-1.78 -5.68 l-0.04 0 z M82.7835 10.34 l-3 0 c-0.24 -0.86 -0.7 -2.48 -3.18 -2.48 c-1.44 0 -3.56 0.96 -3.56 5.02 c0 2.58 1.02 4.9 3.56 4.9 c1.66 0 2.82 -0.94 3.18 -2.7 l3 0 c-0.6 3.12 -2.64 5.3 -6.24 5.3 c-3.82 0 -6.56 -2.58 -6.56 -7.54 c0 -5.02 2.9 -7.58 6.6 -7.58 c4.3 0 6.04 2.96 6.2 5.08 z M97.618 15.14 l0 4.86 l-3 0 l0 -14.36 l3 0 l0 5.84 l5.48 -5.84 l3.88 0 l-5.86 5.88 l6.2 8.48 l-3.86 0 l-4.44 -6.3 z M121.1725 13.96 l0 6.04 l-3 0 l0 -14.36 l10.22 0 l0 2.54 l-7.22 0 l0 3.24 l6.32 0 l0 2.54 l-6.32 0 z M139.087 12.82 c0 -6.74 5 -7.56 6.9 -7.56 s6.9 0.82 6.9 7.56 s-5 7.56 -6.9 7.56 s-6.9 -0.82 -6.9 -7.56 z M142.087 12.82 c0 4.02 2.28 5.02 3.9 5.02 s3.9 -1 3.9 -5.02 s-2.28 -5.02 -3.9 -5.02 s-3.9 1 -3.9 5.02 z M164.6215 20 l0 -14.36 l7.26 0 c3.82 0 4.52 2.82 4.52 4.06 c0 1.58 -0.8 2.94 -2.22 3.42 c1.18 0.52 1.82 0.96 1.82 3.64 c0 2.1 0 2.62 0.64 2.86 l0 0.38 l-3.32 0 c-0.2 -0.68 -0.32 -1.42 -0.32 -2.9 c0 -1.96 -0.12 -2.72 -2.34 -2.72 l-3.1 0 l0 5.62 l-2.94 0 z M167.5615 11.96 l3.52 0 c1.56 0 2.32 -0.54 2.32 -1.96 c0 -0.76 -0.34 -1.88 -2.1 -1.88 l-3.74 0 l0 3.84 z M188.396 20 l0 -14.36 l6.34 0 c4.84 0 5.84 4.12 5.84 6.84 c0 3.08 -1.22 7.52 -5.96 7.52 l-6.22 0 z M191.33599999999998 8.12 l0 9.4 l2.92 0 c2.44 0 3.26 -2.46 3.26 -4.82 c0 -4.24 -2.02 -4.58 -3.3 -4.58 l-2.88 0 z"/></g>
			</g>
		</svg>
	